<?xml version="1.0" encoding="utf-8"?>
<svg version="1.1" id="Layer_1" xmlns="http://www.w3.org/2000/svg" xmlns:xlink="http://www.w3.org/1999/xlink" x="0px" y="0px"
	 viewBox="0 0 1024 1024" style="enable-background:new 0 0 1024 1024;" xml:space="preserve">
<path d="M748.5,443.3c17.4,0.7,22.8-26.6,2.7-26.6C733.9,416,728.8,443.4,748.5,443.3z"/>
<g>
	<path d="M326.4,437.4c0-3.7-0.3-6.1-0.9-7.3c-9.1-2.3-23.5,0-30.5,4.5l-0.2,1.2c9.4,10.4,0.7,26.8-4.7,53.6
		c-5.9,22.7-9.1,37.7-9.7,44.9c8.6,1.5,19.2-0.4,26.7-2.4C306.6,519.9,326,447.7,326.4,437.4z"/>
	<path d="M640.6,514.2c0.1-0.2,0.2-0.4,0.4-0.6c0,0.2-0.1,0.3-0.1,0.5 M640.9,514.1c-2.3,12.4-2.3,12.4-1.9,20.3
		c11.5,0,19.7-0.9,24.5-2.7c0-8.2,3.1-26.2,9.4-53.8c38.5-21.7-15.3,58,19.6,57.9c11.8-0.3,22.3-9.6,31.7-15.2
		c-1.3,25.3,29.7,13.1,39.5,2.7l-2.9-6c-3,1.6-10,4.7-9.9,4.3c-6.9-12.3,14.9-50,5.5-62.9c-13.6,0-23.4,0.9-29.5,2.6l-0.2,2.2
		c9.4,13,6.1,17.6,1.7,36.4c-1.1,2.3-2.2,12.9-3.5,11.1c-24.1,16.7-22.7,13.7-16.1-16.1c11.3-34.3-3.2-48.6-33.6-27
		c6.5-33.4,12.4-44.5,8.1-60c-7.9,0-16.3,1.5-25.2,4.6c4.7,17.1-9.8,65.5-15.4,93.5c-7.3,3-20.8,16.8-32.7,16.7
		c-21.4,3.1-13.8-65.1,6.7-55.3l-2.6,15.1c3.7,3.7,13.3,6.6,18.5,6.5c25.4-40.1-61.9-47.6-60.3,14.2c-3.6,6.1-20.2,20.4-30.3,19.6
		c-21.4,3.1-13.8-65.1,6.7-55.3l-2.6,15.1c3.7,3.7,13.3,6.6,18.5,6.5c22.6-35.9-42.8-43.2-55.7-8.4c-4.1,0.8-8.3,1.3-12.3,1.5
		c0.1-20.2-6.7-29.5-20-24c-31.5-5.3-49.2,28.1-43.7,55.8l-18.7,7.6c-1,0-1.5-2.1-1.5-6.4c-0.6-13.4,23.3-94.1,15.6-107.2
		c-7.8,0-16.1,1.5-25,4.6c2.7,18.2-1.5,32.7-7.6,63.4c-10.2-0.9-19.4,0.4-30.6,3.3c-4.9-5-11.5-8.2-19.9-9.4
		c8.3-2.6,15.2-6.5,20.6-11.7c12.3-11.2,10.6-34-5.3-41.5c-8.9-4.8-21-7.2-36.2-7.2c-19.8,0-35.9,3.7-48.3,11.1
		c-23.3,11.1-25.8,44.3-0.7,50.3c2.7-4,4.3-8.2,4.6-12.7c-16.7-4.8-13.6-21.6,2.7-30c12.4-8.2,43.8-12.3,57.7-3.8
		c15,9.8,4.7,40.8-12.8,39.8c-1,3.8-1.2,7.1-0.5,10.1c8.1-0.4,14.1,3.4,17.1,11.5c-18.5,7.7-37.2,34.2-20.7,51.2
		c28.4,20.9,59.3-19.4,47.6-48.1c6.1-2,15.5-2.2,22.2-1.5c-3.9,18.4-5.9,29.5-5.9,33.5c1.4,28.4,35.7,8.7,47.1-1.2
		c6.7,21.5,36.8,20.5,48.4,2.9c6.6-8.9,11-19.3,13.2-31.3c3.2-0.6,7.2-1.4,10.1-2.2c-11.1,56,36.7,58.4,67.1,23.7
		c7.9,38.7,49,21.2,67.4,1.4 M343,519.5c-12.2,24.7-26-10.1,3.4-22C347,505.2,345.7,513.2,343,519.5z M479.5,511.9
		c-9.3,14.9-23.4,12-22.4-9.3c-0.1-10.4,4-37.1,15.1-36c-6.7,12.3-3.2,26.7,15.3,25.7C486,499.2,483.3,505.7,479.5,511.9z"/>
</g>
<g>
	<path d="M616.4,562.7c-2.7,0-6.2,1.7-10.3,5c-0.2-2-0.5-3.6-1.1-4.7c-6.3,0-10.8,0.4-13.2,1.2l-0.1,1c9,10.7-6,39.4-2.9,50.7
		c4.5-0.3,8.2-1,11.1-2.2c-0.6-8.6,5.9-34.2,6.2-42.1c12.9-10.6,8.9,26.2-1.4,22.9l-0.6,3.1C625.7,608.1,633.9,564.2,616.4,562.7z"
		/>
	<path d="M685.5,590.8c-3.2,1.2-6.2-0.4-11.4-1.9c2.6-3.6,11.4-15.7,15-19.6l-0.6-2.3c-5.3,1-18.9-1.7-23.5,0.6
		c-0.4,2.1-0.3,6.5,0.4,9c4.7-2.4,6.6-1.7,13.2-2c-3.1,4.7-6.5,9-10.4,12.7c-2.6-0.7-5.5,2.2-6.9,4.5l-0.2-0.3
		c-3.5,1.2-4.5,3.2-4.8,0c-0.1-2,4.4-22.2,4-24.4c-3.9-0.1-8.8,0.3-10.3,1c0.4,3-2.8,17.4-4,22.8c-13.9,8.3,0.9-19.3-2.6-23.9
		c-5.3,0-9.5,0.3-12.7,1l-0.1,0.9c6.2,4.6-2,18-1.1,23.9c0.5,9.4,10.3,6.8,16.1,1.6c1.8,7.4,10,4.7,15.4,0.5c3,4.1,4.5,4.9,8.2-0.6
		c9.8,3.8,19.2,12.4,20.1-5.7l-2.1-0.5C686.5,589.4,685.9,590.3,685.5,590.8z"/>
	<path d="M714.9,590.8c-3.2,1.2-6.2-0.4-11.4-1.9c2.6-3.6,11.4-15.7,15-19.6l-0.6-2.3c-5.3,1-18.9-1.7-23.5,0.6
		c-0.4,2.1-0.3,6.5,0.4,9c4.7-2.4,6.6-1.7,13.2-2c-3.1,4.7-6.5,9-10.4,12.7c-2.8-1.1-7.5,4.1-7.7,6.2c1.8,4.5,4.9,7.2,8.7,0.8
		c9.8,3.8,19.2,12.4,20.1-5.7l-2.1-0.5C715.9,589.4,715.4,590.3,714.9,590.8z"/>
	<path d="M738.1,549.4c0-1.7-0.2-2.8-0.7-3.5c-3.2,0-6.7,0.6-10.4,1.9c1.1,7.6-0.6,13.3-3.1,26.1c-5.9,21.5-4.9,32.4,13.9,19.9
		l-1.3-2.5l-5,1.8c-0.4,0-0.6-0.9-0.6-2.7C730.7,587.1,738.9,553,738.1,549.4z"/>
	<path d="M760.3,583.6c16.8-11.8-4.5-24.2-15.8-11.8c-14.5,16.6,1.6,38.5,19.7,20.7l-1.7-2.3c-4.4,4.2-13,5.7-13.2-3.3
		C753.1,586.6,756.2,585.6,760.3,583.6z M749.3,583.4c0.1-3.5,1.1-12.9,5.6-13.2c1.5,0,2.3,1.3,2.3,3.8
		C757.2,579.2,754.1,582.6,749.3,583.4z"/>
</g>
</svg>
